# xmcd
#
# Track frame offsets: 
#        150
#        15703
#        31675
#        42120
#        55869
#        70856
#        97125
#        115710
#        131847
#        149370
#        162803
#        185824
#        203671
#
# Disc length: 3228 seconds
#
# Revision: 0
# Processed by: cddbd v1.5.2PL0 Copyright (c) Steve Scherf et al.
# Submitted via: ExactAudioCopy v1.0b4
#
DISCID=b30c9a0d
DTITLE=Kris Lager Band - Platte River Runaway
DYEAR=2014
DGENRE=Americana
TTITLE0=Platte River Runaway
TTITLE1=Bright Lights and Big Highways
TTITLE2=Van Morrison
TTITLE3=Hey, Hey Alright
TTITLE4=Slow Down
TTITLE5=Sunshine On The Bayou
TTITLE6=How Long
TTITLE7=Baby, I'm Ready
TTITLE8=Morning Dew
TTITLE9=Just Where I Wanna Be
TTITLE10=Take You Higher
TTITLE11=Lord Have Mercy
TTITLE12=Automatic
EXTD=
EXTT0=
EXTT1=
EXTT2=
EXTT3=
EXTT4=
EXTT5=
EXTT6=
EXTT7=
EXTT8=
EXTT9=
EXTT10=
EXTT11=
EXTT12=
PLAYORDER=
